<?xml version="1.0" ?><svg viewBox="0 0 24 24" xmlns="http://www.w3.org/2000/svg"><g data-name="3. Silence" id="_3._Silence"><path d="M21,8v8a5,5,0,0,0,0-8Z"/><path d="M17.43,23.82A.988.988,0,0,0,18,24a1.039,1.039,0,0,0,.46-.11A1.02,1.02,0,0,0,19,23V9.24L9.78,18.46Z"/><path d="M23.707.293a1,1,0,0,0-1.414,0L19,3.586V1a.761.761,0,0,0-.03-.21A.987.987,0,0,0,17.43.18L9,6.08v7.506l-2,2V7H3A2.006,2.006,0,0,0,1,9v6a2.006,2.006,0,0,0,2,2H5.586L.293,22.293a1,1,0,1,0,1.414,1.414l22-22A1,1,0,0,0,23.707.293Z"/></g></svg>
